<?xml version="1.0" standalone="no"?>
<!DOCTYPE svg PUBLIC "-//W3C//DTD SVG 20010904//EN"
 "http://www.w3.org/TR/2001/REC-SVG-20010904/DTD/svg10.dtd">
<svg version="1.0" xmlns="http://www.w3.org/2000/svg"
 width="512.000000pt" height="512.000000pt" viewBox="0 0 512.000000 512.000000"
 preserveAspectRatio="xMidYMid meet">

<g transform="translate(0.000000,512.000000) scale(0.100000,-0.100000)"
fill="#000000" stroke="none">
<path d="M1176 4579 c-191 -28 -427 -122 -573 -228 -38 -28 -43 -36 -43 -70 0
-31 6 -44 26 -60 37 -29 52 -27 123 19 361 233 796 265 1176 84 104 -49 174
-97 384 -263 104 -83 201 -155 216 -161 42 -16 127 -12 165 8 19 10 116 83
215 163 199 160 295 224 412 273 328 139 676 128 999 -29 292 -142 521 -403
624 -713 50 -152 64 -242 64 -412 1 -317 -79 -532 -319 -866 -215 -299 -468
-577 -750 -822 -66 -57 -128 -113 -137 -124 -39 -44 -3 -118 56 -118 28 0 52
16 142 94 487 418 945 990 1077 1346 220 594 12 1271 -507 1644 -376 270 -888
322 -1320 134 -120 -52 -226 -122 -426 -282 -134 -107 -203 -156 -220 -156
-17 0 -79 43 -200 141 -96 77 -205 160 -241 184 -153 103 -343 178 -528 209
-101 17 -314 20 -415 5z"/>
<path d="M313 4078 c-77 -81 -188 -283 -238 -432 -54 -160 -69 -257 -69 -451
-1 -198 10 -275 65 -445 58 -177 156 -348 349 -605 416 -554 1000 -1060 1665
-1440 278 -159 340 -180 505 -172 139 7 185 24 421 158 183 105 502 309 568
365 55 46 34 134 -33 134 -25 0 -78 -30 -233 -134 -236 -157 -521 -322 -613
-353 -88 -30 -192 -30 -280 0 -81 28 -374 195 -579 332 -331 219 -571 415
-856 700 -352 351 -640 731 -738 977 -168 415 -109 877 159 1240 50 68 55 98
19 133 -34 35 -74 33 -112 -7z"/>
<path d="M475 3665 l-25 -24 0 -516 0 -516 25 -24 c31 -32 74 -33 103 -2 21
22 22 32 22 226 0 113 4 201 9 199 5 -1 84 -84 176 -183 227 -246 248 -265
283 -265 38 0 72 37 72 78 0 28 -27 62 -215 262 -118 127 -215 233 -215 237 0
4 97 105 215 223 198 199 215 219 215 251 0 44 -34 79 -75 79 -24 0 -64 -35
-247 -217 l-218 -217 0 195 c0 191 0 196 -23 217 -31 29 -72 28 -102 -3z"/>
<path d="M1688 3677 c-10 -8 -22 -26 -28 -41 -14 -37 -14 -985 0 -1022 21 -54
77 -71 121 -35 24 19 24 23 27 220 l3 201 115 0 c130 0 193 16 268 70 90 65
137 160 137 278 0 134 -77 249 -209 310 -54 26 -66 27 -237 30 -140 2 -184 -1
-197 -11z m343 -147 c54 -15 101 -50 127 -95 34 -59 28 -150 -14 -201 -51 -63
-93 -79 -221 -82 l-113 -4 0 196 0 196 93 0 c50 0 108 -5 128 -10z"/>
<path d="M3004 3675 c-282 -61 -476 -359 -435 -666 35 -259 189 -444 421 -504
79 -21 234 -24 310 -6 211 50 390 228 445 441 21 82 21 226 0 304 -21 80 -76
182 -129 239 -35 39 -49 47 -78 47 -43 0 -78 -31 -78 -69 0 -18 14 -47 39 -77
21 -27 43 -59 50 -71 11 -23 11 -23 -43 -23 -126 0 -242 -45 -346 -135 -99
-86 -157 -110 -260 -110 -66 1 -96 6 -134 23 l-49 22 6 60 c12 134 111 271
244 337 66 33 85 37 177 42 83 5 108 10 125 25 30 27 28 80 -4 111 -22 23 -31
25 -112 24 -48 0 -116 -7 -149 -14z"/>
<path d="M4015 3665 l-25 -24 0 -516 0 -516 25 -24 c30 -30 64 -32 99 -4 l26
20 0 199 0 198 133 4 c117 3 138 6 188 29 78 37 133 90 170 164 95 193 -1 409
-210 475 -52 17 -91 20 -223 20 -155 0 -159 -1 -183 -25z m352 -137 c61 -15
127 -78 143 -136 19 -71 -3 -137 -64 -190 -47 -41 -91 -52 -208 -52 l-98 0 0
195 0 195 91 0 c49 0 111 -5 136 -12z"/>
<path d="M1156 3219 c-33 -26 -36 -79 -6 -109 19 -19 31 -20 172 -18 150 3
151 3 171 30 23 31 18 67 -15 98 -20 18 -35 20 -159 20 -123 0 -139 -2 -163
-21z"/>
<path d="M1846 2250 c-114 -36 -195 -190 -137 -261 40 -49 131 -18 131 46 0
37 32 68 70 68 38 0 70 -31 70 -70 0 -32 42 -73 75 -73 14 0 37 11 50 25 59
58 4 199 -98 252 -36 18 -122 26 -161 13z"/>
<path d="M3137 2246 c-83 -31 -146 -117 -147 -199 0 -46 36 -87 75 -87 33 0
75 42 75 75 0 31 41 75 70 75 27 0 70 -43 70 -70 0 -75 106 -104 141 -39 17
32 6 101 -25 153 -49 84 -168 126 -259 92z"/>
<path d="M2380 2144 c-145 -38 -213 -154 -189 -324 25 -175 145 -307 313 -342
192 -41 394 121 425 342 24 172 -44 287 -194 325 -77 19 -280 19 -355 -1z"/>
</g>
</svg>
